<svg width="599" height="398" viewBox="0 0 599 398" fill="none" xmlns="http://www.w3.org/2000/svg">
<path d="M313.018 394.203L93.313 264.211C86.318 260.273 80.323 253.821 87.138 249.589L307.625 122.367C310.93 120.315 315.952 118.968 319.321 120.93L549.916 254.937C556.91 259.003 558.166 270.329 551.196 274.433L341.972 393.998C337.581 396.549 332.601 397.909 327.523 397.945C322.445 397.981 317.446 396.691 313.019 394.203H313.018Z" fill="#5B36A0"/>
<path d="M313.018 388.203L93.313 258.211C86.318 254.273 80.323 247.821 87.138 243.589L307.625 116.367C310.93 114.315 315.952 112.968 319.321 114.93L549.916 248.937C556.91 253.003 558.166 264.329 551.196 268.433L341.972 387.998C337.581 390.549 332.601 391.909 327.523 391.945C322.445 391.981 317.446 390.691 313.019 388.203H313.018Z" fill="#6862E6"/>
<path style="mix-blend-mode:multiply" opacity="0.25" d="M331.133 216.693L287.78 241.46C287.78 241.46 354.563 282.26 368.219 288.006L393.187 252.093" fill="url(#paint0_linear)"/>
<path style="mix-blend-mode:multiply" opacity="0.25" d="M316.157 335.513L272.792 310.798L229.428 335.565C229.428 335.565 252.013 349.365 273.599 362.038C287.307 352.328 301.027 342.517 316.157 335.513V335.513Z" fill="url(#paint1_linear)"/>
<path style="mix-blend-mode:multiply" opacity="0.46" d="M222.728 182.883L195.223 198.595C195.223 198.595 197.554 212.999 211.211 218.745L247.221 195.658" fill="url(#paint2_linear)"/>
<path d="M236.192 198.595C245.354 198.595 252.782 193.358 252.782 186.898C252.782 180.438 245.354 175.201 236.192 175.201C227.03 175.201 219.602 180.438 219.602 186.898C219.602 193.358 227.03 198.595 236.192 198.595Z" fill="#68E1FD"/>
<path d="M236.179 185.089C243.042 185.089 248.605 182.809 248.605 179.997C248.605 177.185 243.042 174.905 236.179 174.905C229.316 174.905 223.753 177.185 223.753 179.997C223.753 182.809 229.316 185.089 236.179 185.089Z" fill="#974C26"/>
<path d="M235.73 171.506C235.73 169.21 235.654 166.915 235.474 164.619C235.423 164.02 235.368 163.426 235.308 162.836L235.18 161.669C235.18 161.322 235 160.386 235 160.476C234.923 160.006 234.842 159.54 234.757 159.078C233.402 151.285 230.378 143.878 225.892 137.363C224.204 141.385 223.362 145.712 223.419 150.073C223.419 151.357 223.522 152.639 223.624 153.845V154.602C223.727 155.217 223.842 155.884 223.97 156.448C224.459 158.788 225.114 161.09 225.93 163.336C226.664 165.404 227.56 167.411 228.608 169.339C229.739 171.509 230.965 173.627 232.284 175.688C233.235 177.192 234.231 178.668 235.269 180.113C235.577 177.253 235.718 174.379 235.73 171.506V171.506ZM229.21 145.687C229.276 145.392 229.276 145.085 229.21 144.79C229.526 145.114 229.838 145.448 230.145 145.79C229.837 145.702 229.517 145.668 229.197 145.687H229.21Z" fill="#999A1C"/>
<path d="M239.996 173.276C241.266 171.36 242.434 169.378 243.494 167.338C243.776 166.808 244.049 166.278 244.314 165.748L244.839 164.683L245.339 163.58L245.889 162.297C248.96 154.999 250.415 147.123 250.155 139.21C246.553 141.681 243.501 144.868 241.188 148.573C240.524 149.642 239.904 150.737 239.33 151.857L239.074 152.331L239.01 152.537C238.767 153.114 238.523 153.691 238.293 154.281C237.443 156.516 236.753 158.809 236.23 161.143C235.732 163.282 235.402 165.456 235.244 167.646C235.018 170.08 234.907 172.524 234.911 174.969C234.911 176.88 234.911 178.625 235.026 180.305C236.73 178.035 238.446 175.7 239.996 173.276V173.276ZM248.452 148.022C248.652 147.796 248.801 147.529 248.887 147.239C248.981 147.684 249.062 148.112 249.131 148.522C248.931 148.322 248.701 148.154 248.451 148.022H248.452Z" fill="#999A1C"/>
<path d="M239.907 178.997C241.211 178.348 242.493 177.655 243.75 176.919L244.71 176.329L245.339 175.931L245.954 175.495L246.671 174.969C250.677 172.025 253.998 168.249 256.407 163.9C253.672 164.076 251.003 164.814 248.567 166.068C247.862 166.428 247.183 166.825 246.504 167.235L246.21 167.415L246.107 167.505L245.159 168.21C243.978 169.143 242.865 170.159 241.829 171.25C240.871 172.244 239.993 173.311 239.202 174.443C238.313 175.702 237.458 176.985 236.64 178.291C236.06 179.249 235.509 180.225 234.987 181.216C236.64 180.523 238.293 179.805 239.907 178.996V178.997ZM252.615 168.095C252.796 168.038 252.963 167.941 253.102 167.812C253.008 168.086 252.906 168.355 252.794 168.62C252.761 168.441 252.7 168.268 252.615 168.107V168.095ZM235.73 171.506C235.73 169.21 235.654 166.915 235.474 164.619C235.423 164.02 235.368 163.426 235.308 162.836L235.18 161.669C235.18 161.322 235 160.386 235 160.476C234.923 160.006 234.842 159.54 234.757 159.078C233.402 151.285 230.378 143.878 225.892 137.363C224.204 141.385 223.362 145.712 223.419 150.073C223.419 151.357 223.522 152.639 223.624 153.845V154.602C223.727 155.217 223.842 155.884 223.97 156.448C224.459 158.788 225.114 161.09 225.93 163.336C226.664 165.404 227.56 167.411 228.608 169.339C229.739 171.509 230.965 173.627 232.284 175.688C233.235 177.192 234.231 178.668 235.269 180.113C235.577 177.253 235.718 174.379 235.73 171.506V171.506ZM229.21 145.687C229.276 145.392 229.276 145.085 229.21 144.79C229.526 145.114 229.838 145.448 230.145 145.79C229.837 145.702 229.517 145.668 229.197 145.687H229.21Z" fill="#999A1C"/>
<path d="M239.996 173.276C241.266 171.36 242.434 169.378 243.494 167.338C243.776 166.808 244.049 166.278 244.314 165.748L244.839 164.683L245.339 163.58L245.889 162.297C248.96 154.999 250.415 147.123 250.155 139.21C246.553 141.681 243.501 144.868 241.188 148.573C240.524 149.642 239.904 150.737 239.33 151.857L239.074 152.331L239.01 152.537C238.767 153.114 238.523 153.691 238.293 154.281C237.443 156.516 236.753 158.809 236.23 161.143C235.732 163.282 235.402 165.456 235.244 167.646C235.018 170.08 234.907 172.524 234.911 174.969C234.911 176.88 234.911 178.625 235.026 180.305C236.73 178.035 238.446 175.7 239.996 173.276V173.276ZM248.452 148.022C248.652 147.796 248.801 147.529 248.887 147.239C248.981 147.684 249.062 148.112 249.131 148.522C248.931 148.322 248.701 148.154 248.451 148.022H248.452Z" fill="#999A1C"/>
<path d="M239.907 178.997C241.211 178.348 242.493 177.655 243.75 176.919L244.71 176.329L245.339 175.931L245.954 175.495L246.671 174.969C250.677 172.025 253.998 168.249 256.407 163.9C253.672 164.076 251.003 164.814 248.567 166.068C247.862 166.428 247.183 166.825 246.504 167.235L246.21 167.415L246.107 167.505L245.159 168.21C243.978 169.143 242.865 170.159 241.829 171.25C240.871 172.244 239.993 173.311 239.202 174.443C238.313 175.702 237.458 176.985 236.64 178.291C236.06 179.249 235.509 180.225 234.987 181.216C236.64 180.523 238.293 179.805 239.907 178.996V178.997ZM252.615 168.095C252.796 168.038 252.963 167.941 253.102 167.812C253.008 168.086 252.906 168.355 252.794 168.62C252.761 168.441 252.7 168.268 252.615 168.107V168.095Z" fill="#999A1C"/>
<path d="M348.35 207.022L324.356 218.565C323.452 219.001 322.683 219.674 322.132 220.514C321.582 221.353 321.27 222.326 321.23 223.33C321.191 224.333 321.425 225.328 321.908 226.208C322.391 227.088 323.105 227.82 323.972 228.325L380.839 261.545C382.068 262.264 383.528 262.48 384.912 262.148C386.297 261.816 387.5 260.961 388.269 259.763L402.092 238.24" fill="#A1482D"/>
<path d="M478.854 151.344L287.524 40.962C286.212 40.2064 284.724 39.8096 283.21 39.8113C281.695 39.8131 280.208 40.2134 278.898 40.972C277.587 41.7314 276.498 42.8222 275.741 44.1351C274.984 45.4479 274.586 46.9366 274.586 48.452V163.285C274.586 164.545 274.917 165.784 275.547 166.875C276.176 167.967 277.082 168.874 278.173 169.505L482.146 287.39C482.849 287.798 483.648 288.013 484.462 288.014C485.275 288.014 486.074 287.8 486.778 287.393C487.482 286.985 488.067 286.399 488.473 285.694C488.879 284.989 489.092 284.189 489.09 283.375V169.018C489.088 165.432 488.14 161.91 486.343 158.808C484.546 155.705 481.963 153.13 478.854 151.344V151.344Z" fill="#F47B56"/>
<path d="M287.537 49.646L473.089 156.526C475.071 157.669 476.717 159.314 477.861 161.295C479.006 163.277 479.608 165.524 479.609 167.812V253.888C479.608 254.711 479.391 255.52 478.98 256.233C478.568 256.947 477.977 257.54 477.265 257.953C476.553 258.366 475.746 258.584 474.923 258.587C474.1 258.589 473.291 258.375 472.577 257.967L283.348 149.304C282.64 148.897 282.051 148.311 281.642 147.604C281.232 146.897 281.017 146.094 281.017 145.277V53.429C281.017 51.874 281.844 50.437 283.188 49.657C283.848 49.2736 284.598 49.0708 285.362 49.0689C286.125 49.0669 286.876 49.266 287.538 49.646H287.537Z" fill="white"/>
<path d="M365.611 211.999C367.8 211.577 369.183 209.206 368.701 206.702C368.219 204.198 366.054 202.51 363.865 202.931C361.676 203.353 360.293 205.724 360.775 208.228C361.257 210.732 363.422 212.42 365.611 211.999Z" fill="#AB643C"/>
<path opacity="0.32" d="M337.41 166.427L423.64 218.296L466.235 193.503L390.126 149.15" fill="url(#paint3_linear)"/>
<path d="M443.97 156.102L350.746 99.192C350.247 98.9032 349.68 98.7535 349.103 98.7584C348.527 98.7634 347.962 98.9228 347.468 99.22C346.974 99.5173 346.568 99.9416 346.292 100.449C346.017 100.956 345.883 101.527 345.903 102.104V134.53C345.899 135.116 346.047 135.694 346.332 136.206C346.617 136.718 347.03 137.148 347.53 137.454L440.742 193.158C441.739 193.725 442.962 193.718 443.952 193.138C444.439 192.853 444.842 192.446 445.122 191.956C445.402 191.466 445.548 190.912 445.546 190.348L446.033 160.118C446.069 159.327 445.897 158.54 445.536 157.836C445.174 157.132 444.634 156.534 443.97 156.103V156.102Z" fill="#E2AC00"/>
<path d="M421.667 172.789C425.01 177.47 430.89 178.779 434.785 175.726C438.679 172.673 439.128 166.402 435.785 161.733C432.44 157.064 426.56 155.743 422.665 158.796C418.771 161.848 418.323 168.107 421.667 172.789V172.789Z" fill="white"/>
<path d="M412.52 150.318L374.497 127.398C374.17 127.245 373.798 127.219 373.454 127.326C373.11 127.433 372.818 127.665 372.635 127.976C372.452 128.287 372.392 128.656 372.467 129.009C372.541 129.362 372.744 129.675 373.037 129.886L411.059 152.806C411.386 152.959 411.758 152.985 412.102 152.878C412.446 152.771 412.738 152.539 412.921 152.228C413.104 151.917 413.164 151.549 413.09 151.195C413.016 150.842 412.813 150.529 412.52 150.318V150.318ZM410.957 159.63L358.547 128.039C358.226 127.929 357.877 127.935 357.559 128.056C357.242 128.176 356.978 128.405 356.811 128.701C356.645 128.997 356.588 129.342 356.65 129.675C356.713 130.009 356.89 130.31 357.151 130.527L409.496 162.13C409.823 162.283 410.195 162.309 410.539 162.202C410.883 162.095 411.176 161.863 411.358 161.552C411.541 161.241 411.601 160.873 411.527 160.519C411.453 160.166 411.25 159.853 410.957 159.642V159.629V159.63Z" fill="#F2F2F2"/>
<path d="M425.369 162.387L332.196 105.49C331.697 105.201 331.13 105.052 330.553 105.056C329.977 105.061 329.412 105.221 328.918 105.518C328.424 105.815 328.018 106.24 327.742 106.747C327.467 107.254 327.333 107.825 327.353 108.402V140.813C327.345 141.401 327.49 141.98 327.773 142.495C328.056 143.01 328.468 143.443 328.968 143.751L422.179 199.454C423.187 200.034 424.429 200.024 425.427 199.429C425.918 199.136 426.322 198.718 426.597 198.218C426.873 197.717 427.011 197.152 426.996 196.581L427.483 166.351C427.505 165.564 427.321 164.784 426.95 164.089C426.58 163.394 426.035 162.808 425.369 162.387V162.387Z" fill="#F47B56"/>
<path d="M403.065 179.074C406.409 183.755 412.289 185.064 416.184 182.011C420.078 178.958 420.526 172.686 417.183 168.018C413.839 163.348 407.959 162.028 404.065 165.08C400.17 168.133 399.722 174.392 403.065 179.074Z" fill="white"/>
<path d="M393.918 156.602L355.87 133.682C355.543 133.529 355.172 133.503 354.827 133.61C354.483 133.717 354.191 133.949 354.008 134.26C353.825 134.571 353.765 134.94 353.84 135.293C353.914 135.646 354.117 135.959 354.41 136.17L392.432 159.09C392.759 159.243 393.131 159.269 393.475 159.162C393.819 159.055 394.112 158.823 394.294 158.512C394.477 158.201 394.537 157.833 394.463 157.479C394.389 157.126 394.186 156.813 393.893 156.602H393.918V156.602ZM392.343 165.978L339.946 134.336C339.619 134.183 339.247 134.158 338.903 134.265C338.558 134.372 338.266 134.604 338.084 134.915C337.901 135.226 337.841 135.595 337.916 135.948C337.99 136.301 338.193 136.614 338.486 136.825L390.895 168.415C391.222 168.568 391.594 168.594 391.938 168.487C392.282 168.38 392.574 168.148 392.757 167.837C392.94 167.526 393 167.157 392.925 166.804C392.851 166.451 392.648 166.138 392.355 165.927L392.343 165.978V165.978Z" fill="#F2F2F2"/>
<path d="M401.99 166.21L308.79 109.313C308.291 109.024 307.724 108.874 307.147 108.879C306.571 108.884 306.006 109.043 305.512 109.34C305.018 109.637 304.612 110.062 304.337 110.569C304.062 111.076 303.928 111.647 303.948 112.224V144.636C303.944 145.222 304.092 145.8 304.377 146.312C304.662 146.824 305.075 147.254 305.575 147.56L398.786 203.264C399.794 203.844 401.036 203.834 402.035 203.238C402.525 202.945 402.929 202.527 403.205 202.027C403.48 201.527 403.618 200.962 403.603 200.391L404.09 170.16C404.111 169.376 403.928 168.601 403.56 167.909C403.192 167.216 402.651 166.631 401.99 166.21V166.21Z" fill="#68E1FD"/>
<path d="M401.99 166.21L308.79 109.313C308.291 109.024 307.724 108.874 307.147 108.879C306.571 108.884 306.006 109.043 305.512 109.34C305.018 109.637 304.612 110.062 304.337 110.569C304.062 111.076 303.928 111.647 303.948 112.224V144.636C303.944 145.222 304.092 145.8 304.377 146.312C304.662 146.824 305.075 147.254 305.575 147.56L398.786 203.264C399.794 203.844 401.036 203.834 402.035 203.238C402.525 202.945 402.929 202.527 403.205 202.027C403.48 201.527 403.618 200.962 403.603 200.391L404.09 170.16C404.111 169.376 403.928 168.601 403.56 167.909C403.192 167.216 402.651 166.631 401.99 166.21V166.21Z" fill="#68E1FD"/>
<path d="M379.673 182.896C383.016 187.577 388.897 188.886 392.791 185.833C396.686 182.78 397.134 176.508 393.791 171.84C390.447 167.171 384.566 165.85 380.672 168.903C376.778 171.955 376.368 178.214 379.672 182.896H379.673Z" fill="white"/>
<path d="M370.526 160.425L332.491 137.505C332.164 137.352 331.792 137.326 331.448 137.433C331.104 137.54 330.812 137.772 330.629 138.083C330.446 138.394 330.386 138.762 330.46 139.116C330.534 139.469 330.737 139.782 331.03 139.993L369.053 162.913C369.38 163.066 369.752 163.092 370.096 162.985C370.44 162.878 370.733 162.646 370.915 162.335C371.098 162.024 371.158 161.655 371.084 161.302C371.009 160.949 370.806 160.636 370.513 160.425H370.526V160.425ZM368.95 169.75L316.541 138.158C316.214 138.005 315.842 137.98 315.498 138.087C315.153 138.194 314.861 138.426 314.679 138.737C314.496 139.048 314.436 139.417 314.511 139.77C314.585 140.123 314.788 140.436 315.081 140.647L367.49 172.237C367.817 172.39 368.189 172.416 368.533 172.309C368.877 172.202 369.169 171.97 369.352 171.659C369.535 171.348 369.595 170.979 369.52 170.626C369.446 170.273 369.243 169.96 368.95 169.749V169.75Z" fill="#F2F2F2"/>
<path d="M279.672 163.028C273.648 168.22 269.094 174.903 266.464 182.408C261.826 195.235 273.42 216.192 273.42 216.192L291.458 201.892" fill="#FF8F6F"/>
<path d="M277.724 332.602L272.831 329.896L274.111 322.893C274.111 322.893 281.401 323.585 282.041 326.176" fill="#003B94"/>
<path d="M279.518 332.5C280.62 331.82 281.773 331.217 282.913 330.614C285.743 329.062 289.831 327.459 291.573 324.547C291.93 323.958 292.099 323.275 292.058 322.587C292.017 321.9 291.768 321.241 291.343 320.699C288.78 317.595 283.169 322.7 280.299 319.263C279.736 318.583 279.467 307.796 279.467 307.796L268.552 310.746C268.552 310.746 266.707 332.422 266.912 333.756C267.117 335.09 270.871 336.322 270.871 336.322C271.989 336.084 273.056 335.65 274.022 335.039C275.162 334.205 274.124 324.034 275.585 325.458C277.045 326.882 277.685 332.448 277.685 332.448C278.292 332.54 278.907 332.558 279.518 332.499V332.5Z" fill="#F47B56"/>
<path d="M298.568 343.08L293.674 340.413L294.954 333.41C294.954 333.41 302.244 334.103 302.884 336.693" fill="#003B94"/>
<path d="M300.412 342.978C301.514 342.298 302.667 341.696 303.807 341.093C306.638 339.541 310.725 337.938 312.467 335.026C312.824 334.437 312.993 333.754 312.952 333.066C312.911 332.379 312.662 331.72 312.237 331.178C309.674 328.074 304.063 333.179 301.194 329.742C300.63 329.062 300.361 318.275 300.361 318.275L289.446 321.225C289.446 321.225 287.589 342.978 287.794 344.261C287.999 345.543 291.752 346.826 291.752 346.826C292.87 346.588 293.937 346.154 294.904 345.543C296.044 344.71 295.006 334.539 296.467 335.963C297.927 337.386 298.567 342.953 298.567 342.953C299.179 343.037 299.798 343.046 300.412 342.978V342.978Z" fill="#F47B56"/>
<path d="M263.005 272.614L259.789 315.672C259.789 315.672 264.914 322.752 282.093 318.814L282.259 289.788L263.005 272.614ZM282.849 281.144C282.477 284.85 282.849 325.74 282.849 325.74C282.849 325.74 287.601 334.641 308.291 325.74L307.996 290.994" fill="#3E2928"/>
<path d="M261.403 286.838C262.813 287.813 263.299 282.798 264.773 283.658C270.132 286.775 275.821 289.287 281.734 291.148H281.862C282.003 291.079 282.156 291.04 282.313 291.032C282.469 291.024 282.626 291.047 282.773 291.101C282.92 291.155 283.055 291.238 283.169 291.345C283.283 291.453 283.375 291.582 283.438 291.725C287.091 292.816 290.809 293.673 294.571 294.29C299.401 295.06 303.397 291.482 308.355 291.238C308.355 272.23 308.445 218.129 300.361 206.586L276.443 198.531C276.328 200.506 264.837 213.845 265.118 230.109C265.438 248.437 263.056 265.727 262.646 271.46C262.582 272.435 261.455 285.8 261.403 286.838V286.838Z" fill="#3E2928"/>
<path d="M302.564 184.73L300.361 206.534C300.361 206.534 282.516 207.253 274.829 201.943V183.447" fill="#FF8F6F"/>
<path d="M325.252 170.378L323.433 172.866C324.403 170.842 325.259 168.766 325.995 166.646C326.508 165.196 324.189 164.619 323.677 166.068L323.407 166.812C323.63 166.042 323.839 165.269 324.035 164.49C324.076 164.337 324.085 164.177 324.064 164.02C324.042 163.863 323.989 163.712 323.909 163.575C323.828 163.439 323.721 163.32 323.594 163.225C323.467 163.13 323.322 163.062 323.169 163.024C323.015 162.985 322.855 162.978 322.698 163.002C322.542 163.026 322.391 163.081 322.256 163.164C322.121 163.247 322.003 163.356 321.911 163.484C321.818 163.613 321.752 163.759 321.716 163.913C321.214 165.926 320.611 167.912 319.91 169.865C320.302 168.131 320.584 166.374 320.756 164.605C320.91 163.08 318.514 163.144 318.373 164.605C318.174 166.619 317.814 168.614 317.297 170.57C317.297 169.886 317.233 169.202 317.105 168.518C317.088 168.347 317.034 168.182 316.948 168.034C316.862 167.886 316.745 167.758 316.605 167.658C316.54 167.39 316.463 167.124 316.375 166.863C316.285 166.594 316.102 166.366 315.86 166.218C315.618 166.071 315.331 166.014 315.051 166.057C314.771 166.1 314.515 166.24 314.328 166.454C314.141 166.667 314.036 166.939 314.03 167.223L313.876 176.201C313.443 177.131 312.877 177.996 312.198 178.766C313.351 179.564 314.463 180.42 315.529 181.331C316.48 182.136 317.387 182.992 318.245 183.896C319.011 182.942 319.75 181.967 320.461 180.972C320.549 180.897 320.627 180.811 320.691 180.715C322.825 177.554 325.029 174.441 327.302 171.378C328.25 170.326 326.162 169.159 325.252 170.378V170.378Z" fill="#FFB5A9"/>
<path d="M291.24 164.85C291.24 164.85 299.67 167.12 303.09 172.545C305.232 176.301 307.12 180.196 308.74 184.205L314.965 174.52C314.965 174.52 322.524 176.842 325.521 180.562C325.521 180.562 316.554 200.185 308.739 201.866C300.925 203.546 292.623 190.348 292.623 190.348C292.623 190.348 290.907 195.863 291.24 189.976" fill="#FF8F6F"/>
<path d="M296.595 185.82C294.144 183.823 292.295 181.186 291.253 178.202C290.24 174.752 291.509 171.724 292.687 168.518C293.963 165.339 294.708 161.972 294.891 158.552C294.993 155.192 294.609 151.832 294.378 148.483C294.345 148.34 294.345 148.19 294.378 148.047C293.251 144.264 290.945 141.057 286.398 140.672C274.624 139.672 273.958 152.729 274.048 158.039C274.138 163.349 274.701 166.94 270.794 169.159C266.886 171.378 264.068 177.201 267.796 181.909C271.524 186.615 268.18 184.897 265.695 189.078C263.21 193.259 263.85 198.48 268.949 200.365C274.048 202.25 297.748 198.71 299.925 196.517C300.698 195.633 301.098 194.484 301.04 193.311C300.509 190.36 298.931 187.701 296.595 185.821V185.82Z" fill="#007F68"/>
<path d="M308.176 78.132C310.172 81.008 311.325 84.3841 311.506 87.88C311.729 89.4805 311.341 91.1064 310.418 92.433C310.025 92.8657 309.5 93.155 308.924 93.255C308.348 93.355 307.756 93.26 307.24 92.985C306.593 92.7266 306.008 92.3332 305.524 91.831C305.089 91.4225 304.718 90.9513 304.422 90.433L304.115 89.83C304.031 89.9877 303.928 90.1342 303.807 90.266C303.502 90.5039 303.14 90.6586 302.757 90.715C302.116 90.8337 301.455 90.7531 300.861 90.484C299.445 89.8702 298.266 88.8123 297.504 87.47C296.585 86.0107 296.072 84.3327 296.018 82.609C295.924 81.9195 295.982 81.2178 296.188 80.5531C296.394 79.8885 296.743 79.2768 297.21 78.761C297.616 78.3691 298.132 78.1119 298.689 78.0245C299.246 77.9372 299.817 78.024 300.323 78.273C300.836 78.478 301.309 78.773 301.719 79.146C302.069 79.443 302.378 79.783 302.641 80.159L302.871 80.569V79.428L305.434 80.428L305.69 87.637C305.708 88.153 305.868 88.654 306.152 89.086C306.392 89.503 306.761 89.831 307.202 90.022C308.44 90.51 309.012 89.441 308.919 86.816C308.79 84.2163 307.933 81.7052 306.446 79.569C305.111 77.397 303.125 75.7007 300.771 74.721C299.917 74.2863 298.952 74.1187 298.001 74.2399C297.051 74.3612 296.159 74.7658 295.441 75.401C294.676 76.1712 294.093 77.1035 293.736 78.129C293.379 79.1545 293.257 80.247 293.379 81.326C293.525 84.0751 294.41 86.7339 295.941 89.022C297.159 91.2805 299.079 93.0813 301.411 94.152C302.223 94.492 303.095 94.662 303.974 94.652C304.546 94.691 305.119 94.5854 305.639 94.345L306.152 94.062L307.702 96.948L307.445 97.128C307.202 97.2647 306.95 97.3846 306.69 97.487C306.28 97.664 305.85 97.785 305.408 97.847C304.843 97.9229 304.27 97.9229 303.705 97.847C302.962 97.7582 302.235 97.5726 301.54 97.295C299.567 96.4451 297.814 95.1553 296.415 93.524C294.757 91.6885 293.415 89.5907 292.444 87.316C291.471 85.1428 290.915 82.8064 290.804 80.428C290.666 78.428 291.074 76.429 291.983 74.644C292.737 73.1463 294.041 71.9975 295.621 71.437C297.277 70.8912 299.076 70.9829 300.668 71.694C303.777 73.0099 306.401 75.2597 308.176 78.132V78.132ZM302.526 87.252C302.946 86.714 303.136 86.031 303.051 85.353C303.031 84.5174 302.797 83.7009 302.372 82.981C302.025 82.3526 301.48 81.8566 300.822 81.57C300.57 81.4397 300.284 81.3895 300.002 81.4261C299.72 81.4628 299.457 81.5845 299.246 81.775C299.025 82.0269 298.86 82.3233 298.763 82.6441C298.666 82.9649 298.639 83.3027 298.683 83.635C298.712 84.481 298.963 85.304 299.413 86.02C299.783 86.672 300.353 87.185 301.04 87.483C301.28 87.6062 301.554 87.6502 301.821 87.6087C302.087 87.5672 302.334 87.4424 302.526 87.252ZM459.433 217.013C461.432 219.887 462.585 223.264 462.763 226.761C462.986 228.362 462.598 229.987 461.675 231.314C461.281 231.745 460.756 232.032 460.181 232.132C459.606 232.232 459.014 232.138 458.498 231.866C457.852 231.604 457.268 231.211 456.781 230.712C456.348 230.301 455.977 229.83 455.679 229.313L455.372 228.711C455.285 228.867 455.182 229.013 455.064 229.147C454.76 229.387 454.398 229.542 454.014 229.596C453.379 229.724 452.72 229.647 452.131 229.378C450.713 228.761 449.534 227.698 448.774 226.351C447.846 224.89 447.329 223.207 447.275 221.477C447.178 220.787 447.234 220.085 447.44 219.42C447.646 218.754 447.997 218.143 448.467 217.629C448.871 217.238 449.385 216.982 449.94 216.895C450.495 216.808 451.063 216.894 451.567 217.142C452.081 217.346 452.554 217.641 452.963 218.014C453.313 218.316 453.623 218.661 453.886 219.04L454.129 219.45V218.309L456.691 219.296L456.948 226.505C456.97 227.02 457.129 227.52 457.408 227.954C457.65 228.371 458.018 228.699 458.459 228.89C459.74 229.378 460.266 228.313 460.189 225.684C460.059 223.081 459.202 220.565 457.716 218.424C456.381 216.26 454.4 214.569 452.054 213.589C451.201 213.154 450.237 212.986 449.287 213.104C448.336 213.223 447.444 213.624 446.724 214.256C445.962 215.035 445.386 215.976 445.038 217.009C444.69 218.041 444.579 219.139 444.714 220.22C444.857 222.969 445.742 225.628 447.275 227.915C448.541 230.12 450.481 231.86 452.81 232.879C453.622 233.217 454.493 233.392 455.372 233.392C455.944 233.425 456.515 233.32 457.037 233.084L457.55 232.802L459.1 235.688L458.844 235.868C458.6 236.005 458.348 236.125 458.088 236.227C457.676 236.397 457.246 236.517 456.807 236.586C456.237 236.662 455.66 236.662 455.09 236.586C454.351 236.493 453.628 236.303 452.938 236.022C450.966 235.176 449.213 233.89 447.813 232.263C446.155 230.423 444.814 228.321 443.843 226.043C442.869 223.87 442.313 221.534 442.203 219.155C442.064 217.16 442.471 215.164 443.381 213.383C444.137 211.884 445.439 210.732 447.019 210.164C448.68 209.624 450.482 209.715 452.079 210.421C455.153 211.806 457.722 214.109 459.433 217.013V217.013ZM453.783 226.133C453.994 225.868 454.15 225.563 454.242 225.237C454.334 224.911 454.361 224.57 454.321 224.234C454.299 223.397 454.061 222.58 453.63 221.862C453.289 221.233 452.748 220.736 452.092 220.451C451.841 220.319 451.556 220.267 451.275 220.301C450.993 220.336 450.729 220.455 450.517 220.643C450.292 220.893 450.124 221.188 450.024 221.51C449.925 221.831 449.896 222.17 449.94 222.503C449.97 223.345 450.221 224.163 450.67 224.876C451.039 225.531 451.61 226.048 452.297 226.351C452.536 226.476 452.809 226.522 453.075 226.483C453.342 226.444 453.59 226.321 453.783 226.133" fill="#F47B56"/>
<path style="mix-blend-mode:multiply" opacity="0.25" d="M204.139 271.704L160.774 247L117.423 271.754C117.423 271.754 141.545 286.837 163.132 299.51C176.839 289.813 189.022 278.719 204.139 271.703V271.704Z" fill="url(#paint4_linear)"/>
<g filter="url(#filter0_d)">
<path d="M50.93 196.881V250.751L92.898 274.786L140.285 246.761V192.891" fill="black"/>
</g>
<path d="M50.93 196.881V250.751L92.898 274.786L140.285 246.761V192.891" fill="#FF9271"/>
<path d="M92.899 220.917V274.787L140.286 246.761V192.891L92.899 220.917Z" fill="#DF5C34"/>
<path d="M50.93 196.88L99.624 169.126L140.286 192.893L92.899 220.918L50.93 196.88Z" fill="#F47B56"/>
<path d="M94.013 181.49C98.9502 181.157 103.88 182.242 108.22 184.619C110.706 186.081 112.064 187.607 112.256 189.198C112.448 190.788 111.628 192.173 109.694 193.341C108.777 193.908 107.766 194.307 106.709 194.521C105.84 194.726 104.949 194.816 104.057 194.79L103.083 194.713C103.174 194.93 103.234 195.159 103.263 195.393C103.232 195.947 103.055 196.482 102.75 196.945C102.243 197.805 101.519 198.517 100.65 199.01C98.6253 200.213 96.3047 200.826 93.95 200.78C91.5135 200.846 89.1062 200.238 86.993 199.023C84.994 197.843 83.97 196.457 83.893 194.867C83.9005 194.025 84.1448 193.202 84.5978 192.492C85.0508 191.782 85.6944 191.214 86.455 190.852C87.1848 190.397 87.9796 190.055 88.812 189.839C89.4758 189.647 90.1592 189.531 90.849 189.493H91.554L90.272 188.723L93.872 186.479L102.212 191.391C102.85 191.734 103.563 191.914 104.287 191.914C105.011 191.914 105.724 191.734 106.362 191.391C108.131 190.288 107.499 188.839 104.467 187.043C101.245 185.269 97.5816 184.454 93.911 184.696C90.0205 184.744 86.2147 185.838 82.893 187.864C79.87 189.754 78.371 192.007 78.397 194.624C78.397 197.188 79.998 199.472 83.111 201.306C86.5087 203.206 90.3675 204.125 94.257 203.961C98.1293 204.024 101.943 203.012 105.274 201.036C106.427 200.353 107.461 199.486 108.336 198.471C108.921 197.85 109.358 197.105 109.616 196.291L109.796 195.483L114.549 195.752C114.557 195.897 114.557 196.042 114.549 196.188C114.462 196.581 114.346 196.966 114.203 197.342C113.997 197.945 113.721 198.522 113.383 199.062C112.895 199.789 112.328 200.459 111.693 201.062C110.855 201.87 109.931 202.585 108.938 203.192C106.078 204.909 102.91 206.05 99.612 206.552C96.0182 207.18 92.3487 207.244 88.735 206.744C85.4501 206.357 82.2753 205.319 79.396 203.691C77.0711 202.46 75.2095 200.507 74.092 198.125C73.6353 197.086 73.3995 195.963 73.3995 194.828C73.3995 193.694 73.6353 192.571 74.092 191.532C75.199 189.107 77.0414 187.092 79.358 185.773C83.772 183.06 88.8328 181.581 94.013 181.489V181.49ZM98.676 194.752C98.506 193.861 97.906 193.112 97.075 192.751C96.0659 192.156 94.9163 191.842 93.745 191.84C92.6561 191.799 91.5787 192.075 90.644 192.635C90.2674 192.819 89.9487 193.103 89.7227 193.456C89.4967 193.809 89.3723 194.217 89.363 194.636C89.48 195.526 90.053 196.29 90.875 196.65C91.9072 197.24 93.0805 197.537 94.269 197.51C95.4117 197.539 96.5393 197.245 97.523 196.663C97.8878 196.496 98.196 196.226 98.41 195.887C98.624 195.548 98.7345 195.153 98.728 194.752" fill="#3E2928"/>
<g clip-path="url(#clip0)">
<g opacity="0.099">
<path opacity="0.099" d="M399.793 375.933L219.91 269.403C214.183 266.175 209.274 260.888 214.854 257.42L395.378 153.16C398.084 151.478 402.196 150.374 404.954 151.983L593.753 261.803C599.48 265.135 600.508 274.416 594.802 277.78L423.498 375.765C419.903 377.855 415.825 378.97 411.668 378.999C407.511 379.029 403.418 377.972 399.793 375.933V375.933Z" fill="#6862E6"/>
<path opacity="0.099" d="M399.793 225.135L219.91 118.605C214.183 115.378 209.274 110.09 214.854 106.622L395.378 2.36222C398.084 0.680184 402.196 -0.423528 404.954 1.18472L593.753 111.005C599.48 114.337 600.508 123.619 594.802 126.982L423.498 224.967C419.903 227.057 415.825 228.172 411.668 228.202C407.511 228.231 403.418 227.174 399.793 225.135V225.135Z" stroke="#1E1F36"/>
<path opacity="0.099" d="M399.793 255.215L219.91 148.684C214.183 145.457 209.274 140.17 214.854 136.701L395.378 32.4416C398.084 30.7595 402.196 29.6558 404.954 31.2641L593.753 141.085C599.48 144.417 600.508 153.698 594.802 157.062L423.498 255.046C419.903 257.136 415.825 258.251 411.668 258.281C407.511 258.31 403.418 257.254 399.793 255.215V255.215Z" stroke="#1E1F36"/>
</g>
</g>
<defs>
<filter id="filter0_d" x="0.929993" y="167.891" width="189.355" height="181.895" filterUnits="userSpaceOnUse" color-interpolation-filters="sRGB">
<feFlood flood-opacity="0" result="BackgroundImageFix"/>
<feColorMatrix in="SourceAlpha" type="matrix" values="0 0 0 0 0 0 0 0 0 0 0 0 0 0 0 0 0 0 127 0"/>
<feOffset dy="25"/>
<feGaussianBlur stdDeviation="25"/>
<feColorMatrix type="matrix" values="0 0 0 0 0.209139 0 0 0 0 0.0691446 0 0 0 0 0.478091 0 0 0 0.497159 0"/>
<feBlend mode="normal" in2="BackgroundImageFix" result="effect1_dropShadow"/>
<feBlend mode="normal" in="SourceGraphic" in2="effect1_dropShadow" result="shape"/>
</filter>
<linearGradient id="paint0_linear" x1="352.269" y1="242.95" x2="338.327" y2="261.867" gradientUnits="userSpaceOnUse">
<stop stop-color="#78B46A"/>
<stop offset="0.03" stop-color="#7F3500"/>
<stop offset="1" stop-color="white"/>
</linearGradient>
<linearGradient id="paint1_linear" x1="300.707" y1="325.411" x2="271.466" y2="357.513" gradientUnits="userSpaceOnUse">
<stop stop-color="#78B46A"/>
<stop offset="0.03" stop-color="#7F3500"/>
<stop offset="1" stop-color="white"/>
</linearGradient>
<linearGradient id="paint2_linear" x1="237.165" y1="190.724" x2="215.24" y2="214.796" gradientUnits="userSpaceOnUse">
<stop stop-color="#78B46A"/>
<stop offset="0.03" stop-color="#7F3500"/>
<stop offset="1" stop-color="white"/>
</linearGradient>
<linearGradient id="paint3_linear" x1="441.779" y1="191.045" x2="428.641" y2="181.452" gradientUnits="userSpaceOnUse">
<stop stop-color="white" stop-opacity="0"/>
<stop offset="0.99" stop-color="#DC841E"/>
</linearGradient>
<linearGradient id="paint4_linear" x1="188.689" y1="261.46" x2="159.02" y2="294.032" gradientUnits="userSpaceOnUse">
<stop stop-color="#78B46A"/>
<stop offset="0.03" stop-color="#7F3500"/>
<stop offset="1" stop-color="white"/>
</linearGradient>
<clipPath id="clip0">
<rect width="387" height="379" fill="white" transform="translate(212)"/>
</clipPath>
</defs>
</svg>
